<?xml version="1.0" encoding="UTF-8"?>
<svg xmlns="http://www.w3.org/2000/svg" version="1.1" viewBox="0 0 970 204.07">
  <!-- Generator: Adobe Illustrator 29.6.0, SVG Export Plug-In . SVG Version: 2.1.1 Build 207)  -->
  <defs>
    <style>
      .st0 {
        fill: #6d65a1;
      }

      .st1 {
        fill: #42303c;
      }

      .st2 {
        stroke-linejoin: round;
      }

      .st2, .st3 {
        fill: none;
        stroke: #000;
        stroke-width: 7px;
      }

      .st3 {
        stroke-miterlimit: 10;
      }
    </style>
  </defs>
  <g id="shape">
    <path class="st1" d="M176.82,195.65c10.38-.13,32.89-4.33,40.93-36.94,0,0-15.45,1.16-25.42,4.24-7.77,2.4-29.68,12.58-26.02,25.2,1.33,4.58,5.75,7.56,10.51,7.5Z"/>
    <path class="st0" d="M237.89,180.8c8.2,6.37,28.41,17.12,55.03-3.37,0,0-12.8-8.72-22.51-12.53-7.56-2.97-31.05-8.67-36.06,3.48-1.82,4.4-.22,9.49,3.54,12.42Z"/>
    <path class="st0" d="M185.13,139.72c9.74-4.9,29.07-19.23,21.65-53.74,0,0-14.06,8.21-22.06,15.7-6.23,5.84-22.25,25.54-12.98,35.79,3.36,3.71,8.91,4.49,13.38,2.24Z"/>
    <path class="st0" d="M226.84,81.53c8.44-4.24,25.17-16.65,18.75-46.53,0,0-12.17,7.11-19.1,13.6-5.4,5.06-19.26,22.12-11.24,30.99,2.91,3.21,7.72,3.89,11.59,1.94Z"/>
    <path class="st0" d="M115.99,60.5c-9.69-6.4-28.33-23.95-16.18-59.5,0,0,13.84,10.43,21.36,19.35,5.86,6.95,20.33,29.77,9.25,39.45-4.01,3.51-9.98,3.64-14.43.7Z"/>
    <path class="st0" d="M74.75,180.9c-8.96,7.38-31.23,20.03-61.63-2.05,0,0,14.04-10.15,24.78-14.71,8.37-3.55,34.44-10.66,40.42,2.77,2.17,4.87.54,10.61-3.57,13.99Z"/>
    <path class="st0" d="M137.36,148.03c-10.32-6.8-30.18-25.47-17.27-63.31,0,0,14.73,11.09,22.75,20.58,6.24,7.39,21.66,31.67,9.88,41.98-4.27,3.73-10.62,3.88-15.35.76Z"/>
    <path class="st1" d="M230.98,138.38c14.22-.18,45.07-5.93,56.08-50.62,0,0-21.17,1.59-34.83,5.8-10.64,3.28-40.67,17.23-35.66,34.53,1.82,6.27,7.88,10.36,14.4,10.28Z"/>
    <path class="st1" d="M177.95,67.7c10.32-5.13,30.82-20.17,23.16-56.67,0,0-14.9,8.6-23.39,16.48-6.62,6.14-23.64,26.87-13.9,37.75,3.53,3.94,9.39,4.79,14.13,2.44Z"/>
    <path class="st1" d="M82.69,127.72c-14.08-.14-44.62-5.77-55.62-49.97,0,0,20.95,1.53,34.48,5.67,10.54,3.23,40.29,16.97,35.37,34.1-1.78,6.21-7.77,10.27-14.23,10.2Z"/>
    <path class="st1" d="M133.87,199.18c-11.88-.74-37.42-6.83-44.76-44.64,0,0,17.63,2.21,28.87,6.3,8.76,3.19,33.27,16.1,28.36,30.35-1.78,5.16-7.02,8.33-12.47,7.99Z"/>
  </g>
  <g id="text">
    <rect class="st3" x="346.4" y="72.75" width="37.25" height="43.72" rx="1.1" ry="1.1"/>
    <rect class="st3" x="545.68" y="123.03" width="39.06" height="35.84" rx="1.1" ry="1.1"/>
    <path class="st2" d="M527.3,60.34h32.57c.69,0,1.25.56,1.25,1.25v19.13h-33.83v21.7h44.02"/>
    <line class="st3" x1="584.73" y1="52.18" x2="584.73" y2="109.48"/>
    <polyline class="st2" points="637.71 52.18 637.71 77.74 616.76 97.23"/>
    <line class="st2" x1="637.71" y1="77.74" x2="655.75" y2="96.07"/>
    <line class="st2" x1="659.53" y1="74.71" x2="677.28" y2="74.71"/>
    <line class="st2" x1="677.28" y1="52.18" x2="677.28" y2="107.42"/>
    <circle class="st3" cx="659.53" cy="139.37" r="20.64"/>
    <circle class="st2" cx="750.66" cy="139.37" r="20.64"/>
    <circle class="st2" cx="823.18" cy="82.03" r="16.87"/>
    <circle class="st2" cx="726.26" cy="81.16" r="18.17"/>
    <line class="st2" x1="769.06" y1="52.18" x2="769.06" y2="110.53"/>
    <line class="st2" x1="750.66" y1="73.35" x2="769.06" y2="73.35"/>
    <line class="st2" x1="750.66" y1="92.95" x2="769.06" y2="92.95"/>
    <line class="st2" x1="726.26" y1="46.85" x2="726.26" y2="62.23"/>
    <line class="st2" x1="703.41" y1="61.41" x2="749.1" y2="61.41"/>
    <line class="st2" x1="823.18" y1="98.9" x2="823.18" y2="118.74"/>
    <line class="st2" x1="797.07" y1="117.87" x2="859.83" y2="117.87"/>
    <line class="st2" x1="859.83" y1="61.41" x2="859.83" y2="136.43"/>
    <polyline class="st2" points="886.24 69.11 920.18 69.11 920.18 112.51"/>
    <line class="st2" x1="892.62" y1="94.41" x2="892.62" y2="118.74"/>
    <line class="st2" x1="878.2" y1="118.74" x2="940.75" y2="118.74"/>
    <line class="st2" x1="940.75" y1="62.73" x2="940.75" y2="136.43"/>
    <line class="st2" x1="956.87" y1="94.41" x2="940.75" y2="94.41"/>
    <line class="st2" x1="407.14" y1="58.23" x2="406.61" y2="130.99"/>
    <line class="st2" x1="429.38" y1="127.99" x2="504.9" y2="127.99"/>
    <polyline class="st2" points="491.64 72.26 446.32 72.26 446.32 102.42 491.64 102.42"/>
  </g>
</svg>