<?xml version="1.0" encoding="UTF-8"?>
<svg xmlns="http://www.w3.org/2000/svg" version="1.1" viewBox="0 0 500 394.55">
  <!-- Generator: Adobe Illustrator 29.6.0, SVG Export Plug-In . SVG Version: 2.1.1 Build 207)  -->
  <defs>
    <style>
      .st0 {
        fill: #6f65a4;
      }

      .st1 {
        fill: #452f3d;
      }

      .st2 {
        stroke-linejoin: round;
      }

      .st2, .st3 {
        fill: none;
        stroke: #000;
        stroke-width: 7px;
      }

      .st3 {
        stroke-miterlimit: 10;
      }
    </style>
  </defs>
  <g id="Layer_1">
    <path class="st1" d="M289.49,251.29c13.08-.16,41.44-5.45,51.56-46.54,0,0-19.46,1.46-32.02,5.34-9.78,3.02-37.39,15.84-32.79,31.75,1.67,5.77,7.24,9.52,13.24,9.45Z"/>
    <path class="st0" d="M366.43,232.57c10.33,8.03,35.79,21.57,69.33-4.24,0,0-16.13-10.99-28.36-15.79-9.53-3.74-39.11-10.93-45.43,4.39-2.29,5.55-.27,11.96,4.46,15.65Z"/>
    <path class="st0" d="M299.96,180.82c12.28-6.17,36.63-24.23,27.28-67.7,0,0-17.71,10.34-27.79,19.79-7.85,7.36-28.03,32.18-16.35,45.09,4.23,4.68,11.23,5.66,16.86,2.83Z"/>
    <path class="st0" d="M352.51,107.51c10.63-5.35,31.72-20.98,23.62-58.62,0,0-15.33,8.96-24.06,17.13-6.8,6.37-24.27,27.86-14.15,39.04,3.66,4.05,9.72,4.9,14.6,2.45Z"/>
    <path class="st0" d="M212.86,81.01c-12.21-8.06-35.7-30.17-20.39-74.96,0,0,17.43,13.14,26.91,24.38,7.38,8.75,25.61,37.51,11.66,49.7-5.06,4.42-12.57,4.58-18.18.89Z"/>
    <path class="st0" d="M160.9,232.7c-11.29,9.29-39.35,25.23-77.64-2.58,0,0,17.69-12.79,31.22-18.54,10.54-4.48,43.39-13.43,50.93,3.49,2.73,6.13.68,13.37-4.5,17.63Z"/>
    <path class="st0" d="M239.78,191.28c-13-8.57-38.02-32.09-21.76-79.77,0,0,18.56,13.97,28.66,25.92,7.86,9.31,27.29,39.9,12.45,52.88-5.38,4.7-13.38,4.89-19.34.96Z"/>
    <path class="st1" d="M357.72,179.13c17.92-.22,56.78-7.47,70.65-63.77,0,0-26.67,2-43.88,7.31-13.41,4.14-51.24,21.71-44.92,43.51,2.29,7.9,9.92,13.05,18.15,12.95Z"/>
    <path class="st1" d="M290.91,90.08c13.01-6.46,38.83-25.41,29.18-71.39,0,0-18.77,10.84-29.47,20.76-8.33,7.73-29.78,33.86-17.51,47.56,4.45,4.96,11.83,6.04,17.8,3.08Z"/>
    <path class="st1" d="M170.9,165.69c-17.74-.18-56.21-7.27-70.07-62.96,0,0,26.4,1.92,43.44,7.14,13.28,4.06,50.76,21.37,44.56,42.96-2.25,7.82-9.79,12.94-17.93,12.85Z"/>
    <path class="st1" d="M235.38,255.73c-14.97-.93-47.14-8.61-56.39-56.25,0,0,22.21,2.79,36.37,7.94,11.03,4.02,41.92,20.28,35.73,38.24-2.24,6.51-8.84,10.49-15.71,10.06Z"/>
  </g>
  <g id="Layer_2">
    <rect class="st3" x="7.66" y="315.48" width="29.85" height="35.04" rx="1.1" ry="1.1"/>
    <rect class="st3" x="167.36" y="355.76" width="31.3" height="28.72" rx="1.1" ry="1.1"/>
    <path class="st2" d="M152.63,305.52h26.11c.56,0,1.01.45,1.01,1.01v15.33h-27.11v17.39h35.28"/>
    <line class="st3" x1="198.66" y1="298.99" x2="198.66" y2="344.91"/>
    <polyline class="st2" points="241.12 298.99 241.12 319.47 224.32 335.09"/>
    <line class="st2" x1="241.12" y1="319.47" x2="255.57" y2="334.16"/>
    <line class="st2" x1="258.61" y1="317.04" x2="272.83" y2="317.04"/>
    <line class="st2" x1="272.83" y1="298.99" x2="272.83" y2="343.25"/>
    <circle class="st3" cx="258.61" cy="368.86" r="16.54"/>
    <circle class="st2" cx="331.64" cy="368.86" r="16.54"/>
    <circle class="st2" cx="389.75" cy="322.91" r="13.52"/>
    <circle class="st2" cx="312.08" cy="322.21" r="14.56"/>
    <line class="st2" x1="346.38" y1="298.99" x2="346.38" y2="345.75"/>
    <line class="st2" x1="331.64" y1="315.95" x2="346.38" y2="315.95"/>
    <line class="st2" x1="331.64" y1="331.66" x2="346.38" y2="331.66"/>
    <line class="st2" x1="312.08" y1="294.71" x2="312.08" y2="307.04"/>
    <line class="st2" x1="293.77" y1="306.39" x2="330.39" y2="306.39"/>
    <line class="st2" x1="389.75" y1="336.43" x2="389.75" y2="352.33"/>
    <line class="st2" x1="368.83" y1="351.64" x2="419.12" y2="351.64"/>
    <line class="st2" x1="419.12" y1="306.39" x2="419.12" y2="366.5"/>
    <polyline class="st2" points="440.29 312.55 467.49 312.55 467.49 347.34"/>
    <line class="st2" x1="445.4" y1="332.83" x2="445.4" y2="352.33"/>
    <line class="st2" x1="433.85" y1="352.33" x2="483.98" y2="352.33"/>
    <line class="st2" x1="483.98" y1="307.44" x2="483.98" y2="366.5"/>
    <line class="st2" x1="496.9" y1="332.83" x2="483.98" y2="332.83"/>
    <line class="st2" x1="56.34" y1="303.84" x2="55.91" y2="362.15"/>
    <line class="st2" x1="74.16" y1="359.75" x2="134.68" y2="359.75"/>
    <polyline class="st2" points="124.06 315.08 87.74 315.08 87.74 339.25 124.06 339.25"/>
  </g>
</svg>